<?xml version="1.0" encoding="UTF-8"?><svg id="a" xmlns="http://www.w3.org/2000/svg" viewBox="0 0 542.66 142.81"><defs><style>.b{fill:#0063a7;}.c{fill:#1b3668;}.d{fill:#231f20;font-family:KeepCalm-Medium, Keep Calm;font-size:79.85px;}</style></defs><g><path class="c" d="M129.01,123.39V55.74c0-1.38-.59-2.7-1.62-3.62L70.45,1.23c-1.84-1.64-4.62-1.64-6.46,0L7.04,52.12c-1.03,.92-1.62,2.24-1.62,3.62V123.5c-3.22,1.73-5.42,5.14-5.42,9.05,0,5.66,4.61,10.27,10.27,10.27s10.27-4.61,10.27-10.27c0-3.91-2.2-7.31-5.42-9.05V57.9L67.22,11.35l52.1,46.56V123.63c-3.1,1.77-5.2,5.1-5.2,8.92,0,5.66,4.61,10.27,10.27,10.27s10.27-4.61,10.27-10.27c0-4-2.3-7.46-5.64-9.15Zm-118.75,12.15c-1.65,0-3-1.34-3-3s1.34-2.99,3-2.99,3,1.34,3,2.99-1.34,3-3,3Zm114.12,0c-1.65,0-3-1.34-3-3s1.34-2.99,3-2.99,2.99,1.34,2.99,2.99-1.34,3-2.99,3Z"/><path class="b" d="M108.64,84.15v-22.38c0-1.38-.59-2.69-1.62-3.61L70.45,25.47c-1.84-1.64-4.62-1.64-6.46,0L27.41,58.16c-1.03,.92-1.62,2.23-1.62,3.61v48.8c0,2.68,2.17,4.85,4.85,4.85h31.75v8.19c-3.11,1.76-5.22,5.1-5.22,8.93,0,5.66,4.61,10.27,10.27,10.27s10.27-4.61,10.27-10.27c0-3.99-2.29-7.44-5.61-9.14v-12.83c0-2.68-2.17-4.85-4.85-4.85h-31.75V63.94l31.73-28.36,31.73,28.36v20.54c-3.05,1.78-5.11,5.08-5.11,8.86,0,5.66,4.61,10.27,10.27,10.27s10.27-4.61,10.27-10.27c0-4.03-2.34-7.52-5.73-9.19Zm-41.22,51.39c-1.65,0-3-1.34-3-3s1.34-2.99,3-2.99,3,1.34,3,2.99-1.34,3-3,3Zm36.68-39.2c-1.65,0-2.99-1.35-2.99-3s1.34-3,2.99-3,3,1.34,3,3-1.34,3-3,3Z"/><path class="b" d="M68.59,46.82v11.94h10.54c-.04-6.13-4.62-11.17-10.54-11.94Z"/><path class="b" d="M65.43,46.82c-5.93,.77-10.51,5.81-10.54,11.94h10.54v-11.94Z"/><rect class="b" x="54.88" y="61.93" width="10.55" height="9.61"/><rect class="b" x="68.59" y="61.93" width="10.55" height="9.61"/></g><text class="d" transform="translate(151.64 117.42)"><tspan x="0" y="0">SeaQuills</tspan></text></svg>